<svg version="1.2" xmlns="http://www.w3.org/2000/svg" viewBox="0 0 512 512" width="512" height="512">
	<title>dotychczasowy OE-svg</title>
	<style>
		.s0 { fill: #b51200 } 
	</style>
	<path id="Layer" fill-rule="evenodd" class="s0" d="m291.7 207.8c35.4 99.9-38.1 196.3-140.6 184.5-157.6-18.2-160.5-245.6-3.5-272.5 59-10.1 123.3 29.1 144.1 88zm35.5-85.4h152.1v57.5h-92v50.4h90.3v54h-90.3v51.3h92v55.7h-152.1zm-173.9 58.8c-33.3 7.8-52.8 35.5-53 75.3-0.5 100.1 124.9 105 131.8 5.1 3.3-48.1-37.7-90-78.8-80.4z"/>
	<path id="Layer" fill-rule="evenodd" class="s0" d="m291.7 207.8c35.4 99.9-38.1 196.3-140.6 184.5-157.6-18.2-160.5-245.6-3.5-272.5 59-10.1 123.3 29.1 144.1 88zm35.5-85.4h152.1v57.5h-92v50.4h90.3v54h-90.3v51.3h92v55.7h-152.1zm-173.9 58.8c-33.3 7.8-52.8 35.5-53 75.3-0.5 100.1 124.9 105 131.8 5.1 3.3-48.1-37.7-90-78.8-80.4z"/>
</svg>