<svg xmlns="http://www.w3.org/2000/svg" width="512" height="512" viewBox="0 0 512 512" version="1.1"><path d="M 107 120.591 C 40.840 131.182, -2.423 190.863, 3.924 262.786 C 12.397 358.815, 89.820 414.223, 176.500 386.294 C 227.357 369.907, 250.095 332.259, 251.719 261.750 L 252.266 238 191.133 238 L 130 238 130 262.500 L 130 287 161.136 287 L 192.272 287 191.667 291.411 C 184.926 340.597, 119.119 350.234, 84.707 307.076 C 44.616 256.795, 78.264 174.823, 139 174.808 C 156.885 174.804, 164.495 178.375, 183.622 195.746 L 194.706 205.811 215.933 184.567 L 237.159 163.323 230.330 157.048 C 197.814 127.171, 151.470 113.472, 107 120.591 M 285 148.992 L 285 175.984 341.874 176.242 L 398.749 176.500 340.609 269.500 C 308.633 320.650, 278.314 368.676, 273.235 376.224 C 268.156 383.772, 264 390.184, 264 390.474 C 264 390.763, 316.425 391, 380.500 391 L 497 391 497 362 L 497 333 437.527 333 L 378.053 333 384.922 322.250 C 388.700 316.337, 402.712 293.950, 416.060 272.500 C 429.407 251.050, 448.425 220.675, 458.321 205 C 474.467 179.426, 504.767 130.042, 507.867 124.250 L 509.070 122 397.035 122 L 285 122 285 148.992" stroke="none" fill="#b51200" fill-rule="evenodd"/></svg>
